<?xml version="1.0" encoding="UTF-8" standalone="no"?>
<!-- Created with Inkscape (http://www.inkscape.org/) -->

<svg
   xmlns:dc="http://purl.org/dc/elements/1.1/"
   xmlns:cc="http://creativecommons.org/ns#"
   xmlns:rdf="http://www.w3.org/1999/02/22-rdf-syntax-ns#"
   xmlns:svg="http://www.w3.org/2000/svg"
   xmlns="http://www.w3.org/2000/svg"
   xmlns:sodipodi="http://sodipodi.sourceforge.net/DTD/sodipodi-0.dtd"
   xmlns:inkscape="http://www.inkscape.org/namespaces/inkscape"
   width="210mm"
   height="297mm"
   viewBox="0 0 210 297"
   version="1.1"
   id="svg8"
   inkscape:version="0.92.2 (5c3e80d, 2017-08-06)"
   sodipodi:docname="antwoorden.svg">
  <defs
     id="defs2" />
  <sodipodi:namedview
     id="base"
     pagecolor="#ffffff"
     bordercolor="#666666"
     borderopacity="1.0"
     inkscape:pageopacity="0.0"
     inkscape:pageshadow="2"
     inkscape:zoom="0.24748737"
     inkscape:cx="-555.19398"
     inkscape:cy="419.31201"
     inkscape:document-units="mm"
     inkscape:current-layer="g4522"
     showgrid="false"
     inkscape:window-width="1842"
     inkscape:window-height="1051"
     inkscape:window-x="-9"
     inkscape:window-y="-9"
     inkscape:window-maximized="1" />
  <metadata
     id="metadata5">
    <rdf:RDF>
      <cc:Work
         rdf:about="">
        <dc:format>image/svg+xml</dc:format>
        <dc:type
           rdf:resource="http://purl.org/dc/dcmitype/StillImage" />
        <dc:title></dc:title>
      </cc:Work>
    </rdf:RDF>
  </metadata>
  <g
     inkscape:label="Layer 1"
     inkscape:groupmode="layer"
     id="layer1">
    <g
       id="g4522"
       transform="rotate(-90,-162.75418,281.125)">
      <g
         id="g4609">
        <path
           id="path4504"
           d="M -3.3143102,-216.4098 H 45.016256 m 20.7131,0 h 13.808642 m 13.80876,0 h 48.330532 m -144.9916002,6.90437 h 6.904376 m 34.5218142,0 h 6.904376 m 6.904376,0 h 6.90434 m 34.521786,0 h 6.904342 m 34.52185,0 h 6.90434 m -144.9916002,6.90434 h 6.904376 m 6.9043752,0 h 20.713096 m 6.904343,0 h 6.904376 m 6.904376,0 h 13.808724 m 6.904348,0 h 6.904294 m 13.80876,0 h 6.904342 m 6.90437,0 h 20.7131 m 6.90438,0 h 6.90434 m -144.9916002,6.90438 h 6.904376 m 6.9043752,0 h 20.713096 m 6.904343,0 h 6.904376 m 6.904376,0 h 27.617366 m 13.80876,0 h 6.904342 m 6.90437,0 h 20.7131 m 6.90438,0 h 6.90434 m -144.9916002,6.90438 h 6.904376 m 6.9043752,0 h 20.713096 m 6.904343,0 h 6.904376 m 6.904376,0 h 27.617366 m 13.80876,0 h 6.904342 m 6.90437,0 h 20.7131 m 6.90438,0 h 6.90434 m -144.9916002,6.90434 h 6.904376 m 34.5218142,0 h 6.904376 m 6.904376,0 h 34.521746 m 6.90438,0 h 6.904342 m 34.52185,0 h 6.90434 m -144.9916002,6.90438 H 45.016256 m 6.904376,0 h 6.90434 m 6.904384,0 h 6.904348 m 6.904294,0 h 6.90438 m 6.90438,0 h 48.330532 m -82.852318,6.90438 h 6.904384 m -55.234915,6.90434 h 6.904344 m 13.808752,0 h 27.617435 m 13.808732,0 h 6.904294 m 6.90438,0 h 6.90438 m 6.904342,0 h 34.52185 m -138.0872602,6.90437 H 10.494441 m 41.426191,0 h 6.90434 m 27.617406,0 h 6.90438 m 41.426192,0 h 6.90434 m -124.278505,6.90438 h 13.808752 m 6.904343,0 h 13.808752 m 13.808724,0 h 6.904348 m 6.904294,0 h 13.80876 m 6.904342,0 h 13.80876 m 6.90434,0 h 6.90437 m 6.90438,0 h 6.90434 m -144.9916002,6.90434 h 6.904376 m 48.3305662,0 h 55.234838 m 6.90439,0 h 6.90434 m 13.80875,0 h 6.90434 m -144.9916002,6.90438 h 6.904376 m 6.9043752,0 h 13.80872 m 6.904376,0 h 13.808719 m 6.904376,0 h 6.90434 m 6.904384,0 h 13.808642 m 6.90438,0 h 6.90438 m 6.904342,0 h 20.7131 m 6.90437,0 h 6.90438 m -82.852318,6.90438 h 6.90434 m 13.808732,0 H 100.2511 m 13.80876,0 h 13.80871 m 6.90438,0 h 6.90434 M -3.3143102,-119.7487 H 45.016256 m 6.904376,0 h 13.808724 m 13.808642,0 h 6.90438 m 6.90438,0 h 6.904342 m 6.90437,0 h 6.90439 m 6.90434,0 h 6.90437 m 6.90438,0 h 6.90434 m -144.9916002,6.90437 h 6.904376 m 34.5218142,0 h 6.904376 m 6.904376,0 h 6.90434 m 13.808732,0 h 6.904294 m 6.90438,0 H 100.2511 m 6.90437,0 h 13.80873 m 6.90437,0 h 13.80872 m -144.9916002,6.90438 h 6.904376 m 6.9043752,0 h 20.713096 m 6.904343,0 h 6.904376 m 13.808716,0 h 6.904384 m 13.808642,0 h 6.90438 m 13.808722,0 h 6.90437 m 6.90439,0 h 6.90434 m 13.80875,0 h 6.90434 m -144.9916002,6.904342 h 6.904376 m 6.9043752,0 h 20.713096 m 6.904343,0 h 6.904376 m 13.808716,0 h 6.904384 m 20.713022,0 h 27.617482 m -117.3741702,6.90438 h 6.904376 m 6.9043752,0 h 20.713096 m 6.904343,0 h 6.904376 m 6.904376,0 h 20.713072 m 6.904294,0 h 13.80876 m 6.904342,0 h 20.7131 m 6.90437,0 h 13.80872 m -144.9916002,6.90437 h 6.904376 m 34.5218142,0 h 6.904376 m 27.617448,0 h 6.904294 m 20.713102,0 h 20.7131 m -124.2785102,6.90435 H 45.016256 m 13.808716,0 h 6.904384 m 48.330504,0 h 6.90434 m 13.80875,0 h 6.90434"
           class="pyqrline"
           inkscape:connector-curvature="0"
           style="stroke:#000000;stroke-width:6.90436506" />
        <text
           xml:space="preserve"
           style="font-style:normal;font-variant:normal;font-weight:normal;font-stretch:normal;font-size:10.58333302px;line-height:1.25;font-family:TESLAFONT;-inkscape-font-specification:TESLAFONT;letter-spacing:0px;word-spacing:0px;fill:#000000;fill-opacity:1;stroke:none;stroke-width:0.26458332"
           x="-249.83432"
           y="-146.88637"
           id="text4517"
           transform="rotate(90)"><tspan
             sodipodi:role="line"
             id="tspan4515"
             x="-249.83432"
             y="-146.88637"
             style="font-size:50.79999924px;stroke-width:0.26458332">Antwoord: A</tspan></text>
      </g>
      <g
         id="g4594"
         transform="translate(-37.256562,-367.63699)">
        <text
           transform="rotate(90)"
           xml:space="preserve"
           style="font-style:normal;font-variant:normal;font-weight:normal;font-stretch:normal;font-size:10.58333302px;line-height:1.25;font-family:TESLAFONT;-inkscape-font-specification:TESLAFONT;letter-spacing:0px;word-spacing:0px;fill:#000000;fill-opacity:1;stroke:none;stroke-width:0.26458332"
           x="410.95865"
           y="-186.52771"
           id="text4517-2"><tspan
             sodipodi:role="line"
             id="tspan4515-4"
             x="410.95865"
             y="-186.52771"
             style="font-size:50.79999924px;stroke-width:0.26458332">Antwoord: B</tspan></text>
        <path
           style="stroke:#000000;stroke-width:6.85714293"
           inkscape:connector-curvature="0"
           class="pyqrline"
           d="m 177.84225,441.92291 v 47.99999 m 0,13.71431 v 13.71426 m 0,6.85715 v 6.85712 m 0,6.85716 v 48.00001 m -6.85715,-144 v 6.85712 m 0,34.28574 v 6.85713 m 0,13.71431 v 13.71426 m 0,20.57143 v 6.85715 m 0,34.28571 v 6.85715 m -6.85713,-144 v 6.85712 m 0,6.85716 v 20.57143 m 0,6.85715 v 6.85713 m 0,6.85715 v 6.85716 m 0,6.85712 v 6.85714 m 0,6.85715 v 6.85712 m 0,6.85716 v 6.85715 m 0,6.85713 v 20.57143 m 0,6.85715 v 6.85715 m -6.85715,-144 v 6.85712 m 0,6.85716 v 20.57143 m 0,6.85715 v 6.85713 m 0,6.85715 v 6.85716 m 0,34.28569 v 6.85715 m 0,6.85713 v 20.57143 m 0,6.85715 v 6.85715 m -6.85715,-144 v 6.85712 m 0,6.85716 v 20.57143 m 0,6.85715 v 6.85713 m 0,20.57143 v 6.85714 m 0,20.57143 v 6.85715 m 0,6.85713 v 20.57143 m 0,6.85715 v 6.85715 m -6.85714,-144 v 6.85712 m 0,34.28574 v 6.85713 m 0,13.71431 v 13.71426 m 0,6.85715 v 6.85712 m 0,6.85716 v 6.85715 m 0,34.28571 v 6.85715 m -6.85714,-144 v 47.99999 m 0,6.85715 v 6.85716 m 0,6.85712 v 6.85714 m 0,6.85715 v 6.85712 m 0,6.85716 v 48.00001 m -6.85714,-82.2857 v 6.85712 m 0,13.71429 v 6.85712 m -6.85714,-68.5714 v 13.71428 m 0,6.85715 v 13.71428 m 0,6.85716 v 20.57141 m 0,34.28571 v 13.71428 m -6.85715,-116.57142 v 27.42858 m 0,6.85713 v 6.85715 m 0,13.71428 v 13.71429 m 0,13.71428 v 6.85715 m 0,6.85713 v 6.85715 m 0,6.85715 v 6.85713 m -6.85714,-130.2857 v 13.71428 m 0,6.85715 v 13.71428 m 0,6.85715 v 6.85713 m 0,6.85715 v 6.85716 m 0,6.85712 v 20.57141 m 0,6.85716 v 13.71428 m 0,13.7143 v 20.57143 m -6.85714,-116.57144 v 6.85715 m 0,13.71428 v 27.42857 m 0,20.57143 v 6.85715 m 0,20.57143 v 6.85713 m 0,6.85715 v 6.85715 M 95.556534,455.63719 v 6.85715 m 0,13.71428 v 13.71428 m 0,20.57143 v 20.57141 m 0,13.71431 v 20.57143 m 0,6.85713 v 6.85715 m -6.857143,-82.28571 v 6.85716 m 0,6.85712 v 6.85714 m 0,13.71427 v 13.71431 m 0,13.71428 v 6.85715 m 0,6.85713 v 6.85715 M 81.842248,441.92291 v 47.99999 m 0,6.85715 v 13.71428 m 0,13.71429 v 20.57143 m 0,6.85713 v 20.57143 m -6.857143,-130.2857 v 6.85712 m 0,34.28574 v 6.85713 m 0,13.71431 v 20.57141 m 0,13.71428 v 6.85715 m 0,13.71428 v 20.57143 M 68.127959,441.92291 v 6.85712 m 0,6.85716 v 20.57143 m 0,6.85715 v 6.85713 m 0,6.85715 v 6.85716 m 0,6.85712 v 27.42857 m 0,6.85715 v 20.57143 m 0,6.85713 v 13.7143 m -6.857139,-144 v 6.85712 m 0,6.85716 v 20.57143 m 0,6.85715 v 6.85713 m 0,6.85715 v 6.85716 m 0,6.85712 v 20.57141 m 0,13.71431 v 6.85713 m 0,6.85715 v 13.71428 m -6.857143,-130.2857 v 6.85712 m 0,6.85716 v 20.57143 m 0,6.85715 v 6.85713 m 0,13.71431 v 13.71426 m 0,13.71427 v 34.28574 m 0,6.85713 v 13.7143 m -6.857146,-144 v 6.85712 m 0,34.28574 v 6.85713 m 0,20.57143 v 13.71429 m 0,6.85712 v 6.85716 m 0,6.85715 v 41.14286 m -6.857139,-144 v 47.99999 m 0,20.57143 v 6.85714 m 0,13.71427 v 6.85716"
           id="path4558" />
      </g>
      <g
         id="g4599"
         transform="translate(50.433914,-317.74413)">
        <text
           transform="rotate(90)"
           xml:space="preserve"
           style="font-style:normal;font-variant:normal;font-weight:normal;font-stretch:normal;font-size:10.58333302px;line-height:1.25;font-family:TESLAFONT;-inkscape-font-specification:TESLAFONT;letter-spacing:0px;word-spacing:0px;fill:#000000;fill-opacity:1;stroke:none;stroke-width:0.26458332"
           x="66.244347"
           y="149.11514"
           id="text4517-9"><tspan
             sodipodi:role="line"
             id="tspan4515-42"
             x="66.244347"
             y="149.11514"
             style="font-size:50.79999924px;stroke-width:0.26458332">Antwoord: C</tspan></text>
        <path
           style="stroke:#000000;stroke-width:6.8571434"
           inkscape:connector-curvature="0"
           class="pyqrline"
           d="m -157.8006,96.6629 v 47.99998 m 0,6.85715 v 6.85715 m 0,6.85712 v 6.85716 m 0,6.85715 v 6.85712 m 0,6.85716 v 48.00001 m -6.85714,-144 v 6.85712 m 0,34.28574 v 6.85712 m 0,6.85715 v 6.85715 m 0,6.85712 v 13.71431 m 0,13.71428 v 6.85715 m 0,34.28571 v 6.85715 m -6.85711,-144 v 6.85712 m 0,6.85715 v 20.57143 m 0,6.85716 v 6.85712 m 0,13.7143 v 6.85712 m 0,13.71431 v 6.85712 m 0,6.85716 v 6.85715 m 0,6.85712 v 20.57143 m 0,6.85716 v 6.85715 m -6.85717,-144 v 6.85712 m 0,6.85715 v 20.57143 m 0,6.85716 v 6.85712 m 0,6.85715 v 6.85715 m 0,20.57143 v 6.85712 m 0,6.85716 v 6.85715 m 0,6.85712 v 20.57143 m 0,6.85716 v 6.85715 m -6.85715,-144 v 6.85712 m 0,6.85715 v 20.57143 m 0,6.85716 v 6.85712 m 0,6.85715 v 13.71427 m 0,6.85716 v 6.85715 m 0,13.71428 v 6.85715 m 0,6.85712 v 20.57143 m 0,6.85716 v 6.85715 m -6.85714,-144 v 6.85712 m 0,34.28574 v 6.85712 m 0,6.85715 v 6.85715 m 0,6.85712 v 6.85716 m 0,6.85715 v 6.85712 m 0,6.85716 v 6.85715 m 0,34.28571 v 6.85715 m -6.85714,-144 v 47.99998 m 0,6.85715 v 6.85715 m 0,6.85712 v 6.85716 m 0,6.85715 v 6.85712 m 0,6.85716 v 48.00001 m -6.85717,-68.57144 v 6.85715 m -6.85711,-61.71428 v 6.85712 m 0,13.71431 v 6.85712 m 0,27.42858 v 13.71427 m 0,13.71431 v 20.57143 m 0,6.85712 v 13.71431 m -6.85717,-144 v 6.85712 m 0,13.71431 v 6.85712 m 0,6.85715 v 6.85716 m 0,6.85712 v 6.85715 m 0,6.85715 v 6.85712 m 0,6.85716 v 20.57143 m 0,6.85715 v 6.85712 m 0,6.85715 v 6.85716 m 0,6.85712 v 13.71431 m -6.85715,-144 v 6.85712 m 0,6.85715 v 34.28571 m 0,6.85715 v 6.85715 m 0,6.85712 v 13.71431 m 0,6.85712 v 6.85716 m 0,20.57142 v 13.71428 m 0,6.85716 v 6.85715 m -6.8571,-137.14288 v 6.85715 m 0,20.57143 v 6.85716 m 0,6.85712 v 13.7143 m 0,6.85712 v 6.85716 m 0,13.71427 v 6.85716 m 0,13.71427 v 13.71431 m 0,6.85712 v 6.85716 m -6.85718,-130.28573 v 6.85715 m 0,6.85716 v 27.42855 m 0,13.7143 v 27.42855 m 0,6.85716 v 6.85715 m 0,6.85712 v 6.85715 m -6.85714,-61.71428 v 20.57143 m 0,13.71427 v 6.85716 m 0,6.85715 v 13.71427 m 0,6.85716 v 6.85712 m 0,6.85716 v 6.85715 m -6.85714,-144 v 47.99998 m 0,27.42858 v 41.14285 m 0,6.85716 v 13.71428 M -260.65775,96.6629 v 6.85712 m 0,34.28574 v 6.85712 m 0,20.57142 v 6.85716 m 0,27.42858 v 13.71427 m 0,20.57144 v 6.85715 m -6.85718,-144 v 6.85712 m 0,6.85715 v 20.57143 m 0,6.85716 v 6.85712 m 0,13.7143 v 13.71428 m 0,6.85715 v 6.85712 m 0,20.57143 v 6.85715 m 0,20.57144 v 6.85715 m -6.8571,-144 v 6.85712 m 0,6.85715 v 20.57143 m 0,6.85716 v 6.85712 m 0,6.85715 v 13.71427 m 0,6.85716 v 13.71427 m 0,6.85716 v 6.85715 m 0,6.85712 v 6.85715 m 0,13.71428 v 13.71431 m -6.85718,-144 v 6.85712 m 0,6.85715 v 20.57143 m 0,6.85716 v 6.85712 m 0,13.7143 v 6.85712 m 0,6.85716 v 6.85715 m 0,6.85712 v 13.71431 m 0,6.85712 v 6.85715 m 0,20.57144 v 6.85715 m -6.85714,-144 v 6.85712 m 0,34.28574 v 6.85712 m 0,13.7143 v 27.42855 m -6.85711,-89.14283 v 47.99998 m 0,20.57142 v 6.85716 m 0,6.85715 v 13.71428 m 0,6.85715 v 6.85712 m 0,6.85715 v 6.85716 m 0,6.85712 v 6.85716"
           id="path4569" />
      </g>
      <g
         id="g4604"
         transform="translate(30.779152,-360.07746)">
        <text
           transform="rotate(90)"
           xml:space="preserve"
           style="font-style:normal;font-variant:normal;font-weight:normal;font-stretch:normal;font-size:10.58333302px;line-height:1.25;font-family:TESLAFONT;-inkscape-font-specification:TESLAFONT;letter-spacing:0px;word-spacing:0px;fill:#000000;fill-opacity:1;stroke:none;stroke-width:0.26458332"
           x="401.88721"
           y="130.21634"
           id="text4517-95"><tspan
             sodipodi:role="line"
             id="tspan4515-9"
             x="401.88721"
             y="130.21634"
             style="font-size:50.79999924px;stroke-width:0.26458332">Antwoord: D</tspan></text>
        <path
           style="stroke:#000000;stroke-width:6.8571434"
           inkscape:connector-curvature="0"
           class="pyqrline"
           d="m -141.16965,432.40498 v 47.99998 m 0,6.85715 v 13.71428 m 0,27.42858 v 48.00001 m -6.85714,-144 v 6.85712 m 0,34.28574 v 6.85712 m 0,13.71431 v 6.85712 m 0,6.85715 v 6.85715 m 0,13.71428 v 6.85715 m 0,34.28571 v 6.85715 m -6.85711,-144 v 6.85712 m 0,6.85715 v 20.57143 m 0,6.85716 v 6.85712 m 0,13.71431 v 6.85712 m 0,13.7143 v 6.85713 m 0,6.85715 v 6.85715 m 0,6.85712 v 20.57143 m 0,6.85716 v 6.85715 m -6.85717,-144 v 6.85712 m 0,6.85715 v 20.57143 m 0,6.85716 v 6.85712 m 0,6.85715 v 13.71428 m 0,27.42858 v 6.85715 m 0,6.85712 v 20.57143 m 0,6.85716 v 6.85715 m -6.85714,-144 v 6.85712 m 0,6.85715 v 20.57143 m 0,6.85716 v 6.85712 m 0,20.57143 v 20.57143 m 0,6.85715 v 6.85715 m 0,6.85712 v 20.57143 m 0,6.85716 v 6.85715 m -6.85715,-144 v 6.85712 m 0,34.28574 v 6.85712 m 0,13.71431 v 6.85712 m 0,27.42858 v 6.85715 m 0,34.28571 v 6.85715 m -6.85714,-144 v 47.99998 m 0,6.85715 v 6.85716 m 0,6.85712 v 6.85715 m 0,6.85715 v 6.85713 m 0,6.85715 v 48.00001 m -6.85717,-75.42859 v 6.85715 m -6.85711,-61.71429 v 6.85716 m 0,6.85712 v 20.57143 m 0,6.85715 v 13.71428 m 0,6.85715 v 20.57143 m 0,20.57143 v 6.85715 m 0,13.71428 v 6.85715 m -6.85717,-144 v 20.57143 m 0,27.42855 v 6.85715 m 0,20.57143 v 6.85715 m 0,13.71428 v 13.71427 m 0,6.85716 v 6.85715 m 0,6.85712 v 13.71431 m -6.85715,-123.42857 v 6.85712 m 0,13.71431 v 13.71427 m 0,27.42858 v 6.85713 m 0,6.85715 v 6.85715 m 0,6.85712 v 34.28574 m -6.8571,-130.28573 v 27.42859 m 0,34.2857 v 20.57143 m 0,6.85715 v 6.85712 m 0,20.57143 v 13.71431 m -6.85718,-144 v 6.85712 m 0,6.85715 v 20.57143 m 0,6.85716 v 13.71427 m 0,6.85716 v 13.71427 m 0,6.85715 v 34.28571 m -6.85714,-61.71429 v 27.42858 m 0,13.71428 v 13.71427 m 0,13.71431 v 20.57143 m -6.85714,-144 v 47.99998 m 0,13.71431 v 6.85712 m 0,27.42858 v 48.00001 m -6.85714,-144 v 6.85712 m 0,34.28574 v 6.85712 m 0,6.85715 v 13.71428 m 0,13.7143 v 6.85713 m 0,13.7143 v 13.71428 m 0,20.57143 v 6.85715 m -6.85718,-144 v 6.85712 m 0,6.85715 v 20.57143 m 0,6.85716 v 6.85712 m 0,6.85715 v 6.85716 m 0,6.85712 v 13.7143 m 0,47.99998 v 13.71431 m -6.8571,-144 v 6.85712 m 0,6.85715 v 20.57143 m 0,6.85716 v 6.85712 m 0,13.71431 v 20.57142 m 0,13.71428 v 6.85715 m 0,6.85712 v 13.71431 m 0,6.85712 v 6.85716 m -6.85718,-137.14285 v 6.85712 m 0,6.85715 v 20.57143 m 0,6.85716 v 6.85712 m 0,6.85715 v 27.42858 m 0,13.71428 v 6.85715 m 0,6.85712 v 6.85716 m 0,20.57143 v 6.85715 m -6.85714,-144 v 6.85712 m 0,34.28574 v 6.85712 m 0,20.57143 v 27.42858 m 0,13.71427 v 6.85716 m 0,13.71427 v 6.85716 m -6.85711,-137.14285 v 47.99998 m 0,13.71431 v 6.85712 m 0,6.85715 v 20.57143 m 0,6.85715 v 6.85712 m 0,20.57143 v 13.71431"
           id="path4580" />
      </g>
      <g
         id="g4731"
         transform="translate(2.760264,678.90974)">
        <text
           xml:space="preserve"
           style="font-style:normal;font-variant:normal;font-weight:normal;font-stretch:normal;font-size:10.58333302px;line-height:1.25;font-family:TESLAFONT;-inkscape-font-specification:TESLAFONT;letter-spacing:0px;word-spacing:0px;fill:#000000;fill-opacity:1;stroke:none;stroke-width:0.26458332"
           x="0.86618096"
           y="-156.4342"
           id="text4517-8-4"
           transform="rotate(90)"><tspan
             sodipodi:role="line"
             id="tspan4515-0-7"
             x="0.86618096"
             y="-156.4342"
             style="font-size:50.79999924px;stroke-width:0.26458332">Kleur: Groen</tspan></text>
        <path
           id="path4669"
           d="m 148.15693,29.300361 v 40.31999 m 0,5.76001 v 5.76001 m 0,17.279997 v 5.759982 m 0,5.76001 v 5.76001 m 0,17.28 v 40.31999 M 142.39692,29.300361 v 5.75998 m 0,28.80002 v 5.75999 m 0,5.76001 v 5.76001 m 0,5.75998 v 17.279999 m 0,28.80002 v 5.75999 m 0,28.80002 v 5.75998 M 136.63691,29.300361 v 5.75998 m 0,5.76001 v 17.28 m 0,5.76001 v 5.75999 m 0,5.76001 v 23.040007 m 0,11.519992 v 5.76001 m 0,17.28 v 5.75999 m 0,5.76001 v 17.28 m 0,5.76001 v 5.75998 M 130.87692,29.300361 v 5.75998 m 0,5.76001 v 17.28 m 0,5.76001 v 5.75999 m 0,17.28 v 23.040009 m 0,11.51999 v 5.76001 m 0,5.76001 v 5.75999 m 0,5.76001 v 17.28 m 0,5.76001 v 5.75998 M 125.11691,29.300361 v 5.75998 m 0,5.76001 v 17.28 m 0,5.76001 v 5.75999 m 0,11.52002 v 5.75998 m 0,17.279999 v 17.28 m 0,11.52002 v 5.75999 m 0,5.76001 v 17.28 m 0,5.76001 v 5.75998 M 119.35692,29.300361 v 5.75998 m 0,28.80002 v 5.75999 m 0,5.76001 v 5.76001 m 0,28.799989 v 5.76001 m 0,5.75998 v 5.76001 m 0,5.76001 v 5.75999 m 0,28.80002 v 5.75998 m -5.76,-143.999999 v 40.31999 m 0,5.76001 v 5.76001 m 0,5.75998 v 5.76001 m 0,5.760007 v 5.759982 m 0,5.76001 v 5.76001 m 0,5.75998 v 5.76001 m 0,5.76001 v 40.31999 m -5.76001,-97.919999 v 17.28 m 0,11.519989 v 11.52002 m -5.75999,-74.880019 v 17.28 m 0,5.76001 v 5.75999 m 0,5.76001 v 5.76001 m 0,34.559999 v 28.8 m 0,11.51999 v 17.28 M 96.316915,35.060341 v 5.76001 m 0,17.28 v 5.76001 m 0,11.52 v 17.28 m 0,11.519989 v 23.04001 m 0,11.52 v 5.76001 m 0,11.51999 v 5.76001 M 90.556925,29.300361 v 46.08 m 0,5.76001 v 11.51999 m 0,5.760007 v 5.759982 m 0,5.76001 v 40.32002 m 0,11.51999 v 11.51999 M 84.796895,29.300361 v 5.75998 m 0,5.76001 v 5.76001 m 0,40.31999 v 11.520017 m 0,23.039982 v 28.80003 m 0,11.51999 v 11.51999 M 79.03692,29.300361 v 17.28 m 0,5.75998 v 17.28001 m 0,5.76001 v 11.51999 m 0,5.76001 v 5.760007 m 0,5.759982 v 5.76001 m 0,17.28 v 11.52 m 0,5.76001 v 17.28 m 0,5.76001 v 5.75998 M 73.276918,29.300361 v 5.75998 m 0,11.52002 v 5.75998 m 0,5.76001 v 5.76001 m 0,28.8 v 11.519989 m 0,11.52002 v 11.51999 m 0,11.52 v 5.76001 m 0,5.76001 v 5.75998 M 67.516916,29.300361 v 5.75998 m 0,17.28 v 28.80003 m 0,5.75998 v 5.76001 m 0,5.760007 v 5.759982 m 0,23.04001 v 5.76001 m 0,11.52 v 28.79999 M 61.756914,29.300361 v 5.75998 m 0,5.76001 v 11.51999 m 0,5.76001 v 5.76001 m 0,5.75999 v 5.76001 m 0,5.76001 v 5.75998 m 0,11.520017 v 5.759982 m 0,17.28 v 5.76001 M 55.996912,29.300361 v 5.75998 m 0,11.52002 v 11.51999 m 0,5.76001 v 5.75999 m 0,11.52002 v 5.75998 m 0,5.76001 v 5.760007 m 0,11.519992 v 5.76001 m 0,5.75998 v 40.32002 M 50.23691,75.380361 v 34.559999 m 0,11.51999 v 5.76001 m 0,17.28001 v 5.76001 m 0,5.75998 v 5.76001 M 44.476908,29.300361 v 40.31999 m 0,23.04001 v 5.760007 m 0,17.280002 v 11.51999 m 0,5.76001 v 5.75999 m 0,5.76001 v 5.76001 m 0,5.75998 v 17.28 M 38.716906,29.300361 v 5.75998 m 0,28.80002 v 5.75999 m 0,11.52002 v 17.279997 m 0,5.759982 v 5.76001 m 0,5.76001 v 11.51999 m 0,17.28001 v 11.51999 m 0,5.76001 v 5.76001 m -5.76,-138.240019 v 5.75998 m 0,5.76001 v 17.28 m 0,5.76001 v 5.75999 m 0,5.76001 v 5.76001 m 0,11.51999 v 11.519989 m 0,11.52002 v 34.56001 m 0,5.75998 v 5.76001 M 27.196926,29.300361 v 5.75998 m 0,5.76001 v 17.28 m 0,5.76001 v 5.75999 m 0,5.76001 v 17.28 m 0,17.279999 v 5.76001 m 0,17.28 v 28.8 m 0,5.76001 v 5.75998 M 21.436896,29.300361 v 5.75998 m 0,5.76001 v 17.28 m 0,5.76001 v 5.75999 m 0,5.76001 v 5.76001 m 0,11.51999 v 17.279999 m 0,5.76001 v 5.75998 m 0,11.52002 v 11.52 m 0,5.76001 v 11.51999 m 0,5.76001 v 5.75998 m -5.76,-143.999999 v 5.75998 m 0,28.80002 v 5.75999 m 0,17.28 v 5.76001 m 0,23.040009 v 5.75998 m 0,5.76001 v 5.76001 m 0,5.75999 v 11.52002 m 0,17.28 v 5.75998 M 9.9169261,29.300361 v 40.31999 m 0,11.52002 v 11.51999 m 0,5.760007 v 17.280002 m 0,5.75998 v 5.76001 m 0,11.52 v 5.76001 m 0,5.76001 v 23.03998"
           class="pyqrline"
           inkscape:connector-curvature="0"
           style="stroke:#000000;stroke-width:5.75999975" />
      </g>
      <g
         id="g4726"
         transform="translate(2.760264,678.90974)">
        <text
           xml:space="preserve"
           style="font-style:normal;font-variant:normal;font-weight:normal;font-stretch:normal;font-size:10.58333302px;line-height:1.25;font-family:TESLAFONT;-inkscape-font-specification:TESLAFONT;letter-spacing:0px;word-spacing:0px;fill:#000000;fill-opacity:1;stroke:none;stroke-width:0.26458332"
           x="-248.93094"
           y="-146.88637"
           id="text4517-8"
           transform="rotate(90)"><tspan
             sodipodi:role="line"
             id="tspan4515-0"
             x="-248.93094"
             y="-146.88637"
             style="font-size:50.79999924px;stroke-width:0.26458332">Kleur: Geel</tspan></text>
        <path
           id="path4680"
           d="m 138.53522,-233.69286 v 40.31999 m 0,5.76001 v 5.76001 m 0,5.75998 v 11.52002 m 0,11.51999 v 17.28 m 0,5.76002 v 40.319985 m -5.76001,-144.000005 v 5.75998 m 0,28.80002 v 5.75999 m 0,11.52002 v 5.75998 m 0,5.76001 v 5.76001 m 0,34.56001 v 5.75998 m 0,28.800022 v 5.759983 M 127.0152,-233.69286 v 5.75998 m 0,5.76001 v 17.28 m 0,5.76001 v 5.75999 m 0,5.76001 v 23.04001 m 0,5.75998 v 17.28 m 0,11.52003 v 5.75998 m 0,5.76001 v 17.28 m 0,5.760012 v 5.759983 m -5.76001,-144.000005 v 5.75998 m 0,5.76001 v 17.28 m 0,5.76001 v 5.75999 m 0,17.28 v 23.04001 m 0,5.76001 v 11.51999 m 0,5.76002 v 5.75998 m 0,5.76001 v 17.28 m 0,5.760012 v 5.759983 m -5.75998,-144.000005 v 5.75998 m 0,5.76001 v 17.28 m 0,5.76001 v 5.75999 m 0,5.76001 v 5.76001 m 0,11.51999 v 5.76001 m 0,5.75998 v 11.52002 m 0,5.75998 v 5.76001 m 0,5.76002 v 5.75998 m 0,5.76001 v 17.28 m 0,5.760012 v 5.759983 M 109.7352,-233.69286 v 5.75998 m 0,28.80002 v 5.75999 m 0,17.28 v 5.76001 m 0,11.51999 v 11.52002 m 0,17.28001 v 5.75998 m 0,28.800022 v 5.759983 m -5.76001,-144.000005 v 40.31999 m 0,5.76001 v 5.76001 m 0,5.75998 v 5.76001 m 0,5.76001 v 5.75998 m 0,5.76001 v 5.76001 m 0,5.75998 v 5.76001 m 0,5.76002 v 40.319985 m -5.759971,-97.920005 v 5.76001 m 0,5.75998 v 5.76001 m 0,5.76001 v 11.51999 m 0,5.76001 v 5.75998 m -5.76001,-63.36 v 11.52 m 0,11.52002 v 46.07999 m 0,5.76002 v 5.75998 m 0,5.76001 v 5.76001 m 0,5.75998 v 5.76001 m 0,5.760012 v 5.759983 m -5.76001,-144.000005 v 17.28 m 0,11.51999 v 5.76001 m 0,5.75999 v 5.76001 m 0,5.76001 v 5.75998 m 0,5.76001 v 11.51999 m 0,5.76001 v 5.76001 m 0,5.75998 v 5.76001 m 0,11.52 v 17.28 m -5.75998,-120.96002 v 17.28 m 0,11.52002 v 23.03999 m 0,5.76001 v 11.51999 m 0,5.76001 v 5.76001 m 0,11.51999 v 5.76002 m 0,5.75998 v 5.76001 m 0,17.28 v 11.519995 m -5.76001,-138.240025 v 5.76001 m 0,17.28 v 5.76001 m 0,5.75999 v 23.04001 m 0,5.76001 v 11.51999 m 0,11.51999 v 5.76001 m 0,5.76002 v 11.51999 m 0,5.76001 v 5.75998 m 0,5.76001 v 11.519995 m -5.76001,-138.240025 v 11.52002 m 0,5.75998 v 46.08003 m 0,5.75998 v 5.76001 m 0,5.76001 v 5.75998 m 0,5.76001 v 17.28001 m 0,5.76001 v 5.75998 m 0,5.76001 v 11.519995 m -5.75998,-144.000005 v 5.75998 m 0,11.52002 v 5.75998 m 0,5.76001 v 5.76001 m 0,11.52 v 5.76001 m 0,11.51999 v 23.04001 m 0,17.28001 v 11.51999 m -5.76001,-115.20001 v 5.75998 m 0,5.76001 v 11.51999 m 0,5.76001 v 28.8 m 0,5.76001 v 40.32002 m 0,5.75998 v 5.76001 m 0,5.76001 v 23.039985 m -5.76,-144.000005 v 5.75998 m 0,40.32002 v 5.76001 m 0,5.75998 v 11.52002 m 0,5.75998 v 11.52002 m 0,5.75998 v 5.76001 m 0,11.52 v 23.04001 m -5.759986,-132.48001 v 5.75998 m 0,5.76001 v 17.28 m 0,5.76001 v 11.52 m 0,5.76001 v 5.75998 m 0,28.80002 v 46.08 m -5.760009,-86.40001 v 5.76001 m 0,5.75998 v 5.76001 m 0,5.76001 v 17.28 m 0,5.75998 v 5.76001 m 0,17.28001 v 17.28 m -5.760007,-132.48001 v 40.31999 m 0,17.28 v 11.52002 m 0,5.75998 v 5.76001 m 0,5.76001 v 11.51999 m 0,5.76002 v 5.75998 m 0,5.76001 v 5.76001 m 0,17.280002 v 5.759983 M 29.095225,-233.69286 v 5.75998 m 0,28.80002 v 5.75999 m 0,5.76001 v 5.76001 m 0,5.75998 v 11.52002 m 0,11.51999 v 17.28 m 0,17.28001 v 5.76001 m -5.760006,-120.96002 v 5.75998 m 0,5.76001 v 17.28 m 0,5.76001 v 5.75999 m 0,17.28 v 23.04001 m 0,11.51999 v 28.80003 m 0,5.75998 v 5.76001 m -5.76001,-132.48001 v 5.75998 m 0,5.76001 v 17.28 m 0,5.76001 v 5.75999 m 0,17.28 v 11.52002 m 0,28.79999 v 5.76002 m 0,34.560002 v 5.759983 M 11.81523,-233.69286 v 5.75998 m 0,5.76001 v 17.28 m 0,5.76001 v 5.75999 m 0,17.28 v 5.76001 m 0,5.76001 v 17.28 m 0,5.75998 v 5.76001 m 0,5.76002 v 11.51999 m 0,5.76001 v 11.51999 m 0,5.760012 v 5.759983 M 6.0552209,-233.69286 v 5.75998 m 0,28.80002 v 5.75999 m 0,11.52002 v 17.28 m 0,17.28 v 5.75998 m 0,11.52003 v 23.03998 m 0,11.520022 v 5.759983 M 0.29521386,-233.69286 v 40.31999 m 0,17.28 v 17.28 m 0,11.52002 v 11.51999 m 0,5.76002 v 5.75998 m 0,5.76001 v 11.51999 m 0,11.520022 v 5.759983"
           class="pyqrline"
           inkscape:connector-curvature="0"
           style="stroke:#000000;stroke-width:5.75999928" />
      </g>
      <g
         id="g4721"
         transform="translate(2.760264,678.90974)">
        <text
           xml:space="preserve"
           style="font-style:normal;font-variant:normal;font-weight:normal;font-stretch:normal;font-size:10.58333302px;line-height:1.25;font-family:TESLAFONT;-inkscape-font-specification:TESLAFONT;letter-spacing:0px;word-spacing:0px;fill:#000000;fill-opacity:1;stroke:none;stroke-width:0.26458332"
           x="-273.02618"
           y="105.48993"
           id="text4517-8-2"
           transform="rotate(90)"><tspan
             sodipodi:role="line"
             id="tspan4515-0-0"
             x="-273.02618"
             y="105.48993"
             style="font-size:50.79999924px;stroke-width:0.26458332">Kleur: Rood</tspan></text>
        <path
           id="path4691"
           d="m -113.76722,-248.65996 v 40.31999 m 0,17.28 v 5.76001 m 0,11.51999 v 23.04001 m 0,5.76001 v 40.31999 m -5.76,-144 v 5.75998 m 0,28.80002 v 5.75999 m 0,5.76001 v 11.51999 m 0,11.52002 v 5.75998 m 0,5.76001 v 11.51999 m 0,11.52002 v 5.75999 m 0,28.80002 v 5.75998 m -5.76,-144 v 5.75998 m 0,5.76001 v 17.28 m 0,5.76001 v 5.75999 m 0,11.52002 v 5.75998 m 0,5.76001 v 5.76001 m 0,11.51999 v 17.28 m 0,5.76001 v 5.75999 m 0,5.76001 v 17.28 m 0,5.76001 v 5.75998 m -5.76003,-144 v 5.75998 m 0,5.76001 v 17.28 m 0,5.76001 v 5.75999 m 0,17.28 v 5.76001 m 0,5.76001 v 28.79999 m 0,5.76001 v 5.75999 m 0,5.76001 v 17.28 m 0,5.76001 v 5.75998 m -5.75998,-144 v 5.75998 m 0,5.76001 v 17.28 m 0,5.76001 v 5.75999 m 0,17.28 v 17.28 m 0,11.52002 v 11.51999 m 0,5.76001 v 5.75999 m 0,5.76001 v 17.28 m 0,5.76001 v 5.75998 m -5.76,-144 v 5.75998 m 0,28.80002 v 5.75999 m 0,5.76001 v 5.76001 m 0,11.51999 v 5.76001 m 0,5.75998 v 11.52002 m 0,5.75998 v 5.76001 m 0,5.76001 v 5.75999 m 0,28.80002 v 5.75998 m -5.76,-144 v 40.31999 m 0,5.76001 v 5.76001 m 0,5.75998 v 5.76001 m 0,5.76001 v 5.75998 m 0,5.76001 v 5.76001 m 0,5.75998 v 5.76001 m 0,5.76001 v 40.31999 m -5.76,-97.92 v 5.76001 m 0,23.03998 v 5.76001 m 0,11.51999 v 5.76001 m -5.76,-74.88002 v 23.04002 m 0,5.76001 v 17.28 m 0,5.75998 v 23.04001 m 0,5.76001 v 11.52 m 0,17.28 v 5.76001 m -5.76,-132.48004 v 17.28 m 0,23.04002 v 5.76001 m 0,11.51999 v 23.04001 m 0,28.8 v 17.28 m -5.75998,-120.96002 v 5.76001 m 0,11.51999 v 46.08 m 0,34.56001 v 11.52002 m 0,5.75998 v 5.76001 m -5.76003,-132.48001 v 5.75998 m 0,5.76001 v 11.51999 m 0,17.28001 v 17.28 m 0,5.76001 v 5.76001 m 0,17.28 v 5.75998 m 0,5.76001 v 5.76001 m 0,5.75999 v 11.52002 m 0,5.75998 v 5.76001 m -5.76,-132.48001 v 11.51999 m 0,23.04001 v 17.28001 m 0,5.75998 v 40.32001 m 0,5.76001 v 11.52 m 0,11.51999 v 5.76001 m 0,5.76001 v 5.75998 m -5.75997,-144 v 5.75998 m 0,5.76001 v 11.51999 m 0,17.28001 v 11.52002 m 0,11.51999 v 5.76001 m 0,34.56 v 5.75999 m 0,5.76001 v 5.76001 m -5.76003,-103.68002 v 5.75998 m 0,11.52002 v 11.52 m 0,5.76001 v 11.51999 m 0,17.28 v 11.51999 m 0,11.52002 v 23.03999 m -5.76,-115.20001 v 5.76001 m 0,5.75998 v 11.52002 m 0,28.8 v 5.76001 m 0,17.28 v 34.56001 m 0,5.75998 v 17.28 m -5.75997,-144 v 11.51999 m 0,5.76001 v 28.8 m 0,5.76001 v 23.03998 m 0,5.76001 v 5.76001 m 0,5.75998 v 28.80003 m 0,5.75998 v 5.76001 m -5.76,-86.40001 v 5.76001 m 0,5.75998 v 5.76001 m 0,5.76001 v 17.28 m 0,5.75998 v 5.76001 m 0,17.28001 v 17.28 m -5.76003,-132.48001 v 40.31999 m 0,5.76001 v 5.76001 m 0,5.75998 v 5.76001 m 0,5.76001 v 11.51999 m 0,5.76001 v 11.51999 m 0,5.76001 v 5.75999 m 0,5.76001 v 5.76001 m -5.75998,-120.96002 v 5.75998 m 0,28.80002 v 5.75999 m 0,5.76001 v 17.28 m 0,11.51999 v 11.52002 m 0,5.75998 v 5.76001 m 0,17.28001 v 28.79999 m -5.76,-144 v 5.75998 m 0,5.76001 v 17.28 m 0,5.76001 v 5.75999 m 0,5.76001 v 5.76001 m 0,5.75998 v 5.76001 m 0,5.76001 v 5.75998 m 0,11.52002 v 46.08 m -5.76,-132.48001 v 5.75998 m 0,5.76001 v 17.28 m 0,5.76001 v 5.75999 m 0,11.52002 v 5.75998 m 0,5.76001 v 11.51999 m 0,5.76001 v 5.76001 m 0,5.75998 v 11.52002 m 0,5.75999 v 5.76001 m 0,11.51999 v 5.76001 m 0,5.76001 v 5.75998 m -5.76,-144 v 5.75998 m 0,5.76001 v 17.28 m 0,5.76001 v 5.75999 m 0,11.52002 v 11.51999 m 0,11.51999 v 11.52002 m 0,11.51999 v 5.76001 m 0,5.75999 v 5.76001 m 0,5.76001 v 5.75998 m 0,5.76001 v 5.76001 m -5.76,-138.24002 v 5.75998 m 0,28.80002 v 5.75999 m 0,51.84 v 11.52002 m 0,11.52 v 5.76001 m 0,5.75998 v 11.52002 m -5.76,-138.24002 v 40.31999 m 0,34.56 v 11.52002 m 0,11.51999 v 46.08"
           class="pyqrline"
           inkscape:connector-curvature="0"
           style="stroke:#000000;stroke-width:5.75999928" />
      </g>
      <g
         id="g4716"
         transform="translate(2.760264,678.90974)">
        <text
           xml:space="preserve"
           style="font-style:normal;font-variant:normal;font-weight:normal;font-stretch:normal;font-size:10.58333302px;line-height:1.25;font-family:TESLAFONT;-inkscape-font-specification:TESLAFONT;letter-spacing:0px;word-spacing:0px;fill:#000000;fill-opacity:1;stroke:none;stroke-width:0.26458332"
           x="11.39819"
           y="107.62809"
           id="text4517-8-0"
           transform="rotate(90)"><tspan
             sodipodi:role="line"
             id="tspan4515-0-3"
             x="11.39819"
             y="107.62809"
             style="font-size:50.79999924px;stroke-width:0.26458332">Kleur: Oranje</tspan></text>
        <path
           id="path4702"
           d="m -114.83629,46.405609 v 40.31999 m 0,5.76001 v 17.280001 m 0,11.51999 v 11.52002 m 0,5.75998 v 5.76001 m 0,5.76001 v 40.31999 m -5.76,-144.000001 v 5.75998 m 0,28.80002 v 5.75999 m 0,5.76001 v 5.760007 m 0,11.519994 v 5.76001 m 0,5.75998 v 23.04001 m 0,5.76001 v 5.75999 m 0,28.80002 v 5.75998 m -5.76,-144.000001 v 5.75998 m 0,5.76001 v 17.28 m 0,5.76001 v 5.75999 m 0,11.520017 v 11.519994 m 0,17.28 v 11.51999 m 0,11.52002 v 5.75999 m 0,5.76001 v 17.28 m 0,5.76001 v 5.75998 m -5.76003,-144.000001 v 5.75998 m 0,5.76001 v 17.28 m 0,5.76001 v 5.75999 m 0,5.76001 V 104.0056 m 0,17.28 v 11.52002 m 0,5.75998 v 5.76001 m 0,5.76001 v 5.75999 m 0,5.76001 v 17.28 m 0,5.76001 v 5.75998 m -5.76001,-144.000001 v 5.75998 m 0,5.76001 v 17.28 m 0,5.76001 v 5.75999 m 0,5.76001 V 104.0056 m 0,5.76001 v 11.51999 m 0,11.52002 v 5.75998 m 0,11.52002 v 5.75999 m 0,5.76001 v 17.28 m 0,5.76001 v 5.75998 M -143.6363,46.405609 v 5.75998 m 0,28.80002 v 5.75999 m 0,5.76001 v 17.280001 m 0,5.76001 v 5.75998 m 0,5.76001 v 5.76001 m 0,17.28 v 5.75999 m 0,28.80002 v 5.75998 m -5.76,-144.000001 v 40.31999 m 0,5.76001 v 5.760007 m 0,5.759984 v 5.76001 m 0,5.76001 v 5.75998 m 0,5.76001 v 5.76001 m 0,5.75998 v 5.76001 m 0,5.76001 v 40.31999 m -5.76003,-86.40001 v 11.52002 m 0,5.75998 v 11.52002 m -5.75997,-69.120011 v 5.75998 m 0,11.52002 v 5.75999 m 0,11.520017 V 121.2856 m 0,5.76001 v 5.76001 m 0,23.03999 v 17.28 m 0,5.76001 v 11.51999 m -5.76,-144.000001 v 17.28 m 0,11.51999 v 5.76001 m 0,5.75999 v 5.76001 m 0,5.760007 v 11.519994 m 0,5.76001 v 5.75998 m 0,5.76001 v 28.8 m 0,17.28 v 17.28 m -5.76,-132.480011 v 5.76001 m 0,5.75998 v 17.28001 m 0,11.520017 v 5.759984 m 0,11.52002 v 17.28 m 0,5.75998 v 11.52002 m 0,11.52 v 11.51999 m 0,5.76001 v 11.51999 m -5.76001,-132.480011 v 23.04001 m 0,11.52 v 5.760007 m 0,11.519994 v 5.76001 m 0,11.51999 v 11.51999 m 0,11.52002 v 17.28001 m 0,11.51999 v 5.76001 m -5.76,-132.480041 v 17.28 m 0,5.76001 v 17.28001 m 0,5.760007 v 5.759984 m 0,5.76001 v 23.04001 m 0,11.51999 v 11.52 m 0,28.80002 v 5.75998 m -5.76,-126.720001 v 17.28 m 0,5.75999 V 104.0056 m 0,5.76001 v 11.51999 m 0,11.52002 v 28.8 m 0,5.76001 v 23.03998 m -5.76,-144.000001 v 5.75998 m 0,5.76001 v 5.76001 m 0,11.51999 v 11.52 m 0,11.520017 v 5.759984 m 0,11.52002 v 5.75998 m 0,5.76001 v 5.76001 m 0,11.51999 v 5.76001 m 0,11.52 v 5.76001 m 0,17.28 v 5.75998 m -5.76,-138.240021 v 23.04001 m 0,11.52 v 5.76001 m 0,5.760007 v 5.759984 m 0,11.52002 v 5.75998 m 0,11.52002 v 5.75998 m 0,5.76001 v 17.28001 m 0,17.28 v 11.51999 m -5.76,-144.000001 v 11.51999 m 0,17.28 v 23.040017 m 0,11.519994 v 11.51999 m 0,5.76001 v 5.76001 m 0,5.75998 v 28.80003 m 0,5.75998 v 5.76001 m -5.75997,-86.400011 v 5.760007 m 0,5.759984 v 17.28 m 0,5.76001 v 17.28 m 0,17.28001 v 5.76001 m 0,5.75998 v 5.76001 m 0,5.76001 v 5.75998 m -5.76003,-144.000001 v 40.31999 m 0,11.520017 v 11.519994 m 0,17.28 v 5.76001 m 0,5.75998 v 5.76001 m 0,5.76001 v 5.75999 m 0,5.76001 v 11.51999 m 0,5.76001 v 11.51999 m -5.76001,-144.000001 v 5.75998 m 0,28.80002 v 5.75999 m 0,17.280001 v 5.76001 m 0,5.76001 v 11.51999 m 0,11.51999 v 5.76001 m 0,17.28001 v 23.04001 m -5.75997,-138.240021 v 5.75998 m 0,5.76001 v 17.28 m 0,5.76001 v 5.75999 m 0,11.520017 v 5.759984 m 0,5.76001 v 5.76001 m 0,17.28 v 40.31999 m -5.76,-126.720001 v 5.75998 m 0,5.76001 v 17.28 m 0,5.76001 v 5.75999 m 0,5.76001 v 17.280001 m 0,17.28 v 17.28 m 0,17.28001 v 23.04001 m -5.76003,-138.240021 v 5.75998 m 0,5.76001 v 17.28 m 0,5.76001 v 5.75999 m 0,11.520017 v 5.759984 m 0,11.52002 v 28.79999 m 0,17.28001 v 5.76001 m 0,5.75998 v 5.76001 m 0,5.76001 v 5.75998 m -5.75997,-144.000001 v 5.75998 m 0,28.80002 v 5.75999 m 0,11.520017 v 17.280004 m 0,17.28 v 5.75998 m 0,5.76001 v 5.76001 m -5.76,-103.680011 v 40.31999 m 0,17.280001 v 5.76001 m 0,17.28 v 5.76001 m 0,5.75998 v 23.04002 m 0,17.28 v 11.51999"
           class="pyqrline"
           inkscape:connector-curvature="0"
           style="stroke:#000000;stroke-width:5.75999928" />
      </g>
    </g>
  </g>
</svg>
